{"title":"Thor The Dark World 2013 CAM READNFO XViD - JUSTiCE","uid":9150126,"size":1242643694,"categoryP":"video","categoryS":"movies","magnet":"?xt=urn:btih:95746ad10a92a8993eeccc740454353c5e23cab2&amp;dn=Thor+The+Dark+World+2013+CAM+READNFO+XViD+-+JUSTiCE&amp;tr=udp%3A%2F%2Ftracker.openbittorrent.com%3A80&amp;tr=udp%3A%2F%2Fopen.demonii.com%3A1337&amp;tr=udp%3A%2F%2Ftracker.coppersurfer.tk%3A6969&amp;tr=udp%3A%2F%2Fexodus.desync.com%3A6969","seeders":2,"leechers":0,"uploader":"xxxlavalxxx","files":-1,"time":1383675215,"description":" &lt;a href=&quot;\nhttp://www.imdb.com/title/tt1981115/&quot; rel=&quot;nofollow&quot; target=&quot;_NEW&quot;&gt;\nhttp://www.imdb.com/title/tt1981115/&lt;/a&gt;\n\n\nFaced with an enemy that even Odin and Asgard cannot withstand, Thor must embark on his most perilous and personal journey yet, one that will reunite him with Jane Foster and force him to sacrifice everything to save us all.\n\nDirector: Alan Taylor\nWriters: Christopher Yost (screenplay), Christopher Markus (screenplay)\nStars: Chris Hemsworth, Natalie Portman, Tom Hiddleston\nGenres: Action | Adventure | Fantasy\nCountry: USA\nLanguage: English\n\n\n\nThor The Dark World 2013 CAM READNFO XViD - JUSTiCE\n\n\n\nSOURCE : VIDEO - Thor El mundo oscuro/CONEHEADS/YOUTUBE THXS   AUDIO - FANTA/YOUTUBE THXS\n\n\nVideo and audio both cleaned and given justice.\nCheck sample and see.....\n\n\nOK where to start ,...well the main video is better than the first cam out,but had issues with interlace,contrast,colours etc....worst part\nits missing some video at the end.\nNow the conehead video had an extra 35 secs at the end so added that....but that also had issues.\n\nWILL SAY NOW ...STILL MISSING SOME VIDEO!!\n\nThen after some reading i found out there was TWO after credit scenes ...so borrowed them off youtube and added them....yet again both had issues.\n\nRuntime in this release is now 3-4mins longer than all others ( time of writing this of course. )\nAccording to sites offical runtime is 111mins 53 - 1hr 51.53,so still a difference of 14mins,if correct.\n\n\nWORKDONE -\n\nTOO much ....had to clean all the videos,changing perspectives,fixing ar's,fixing brightness,contrast,rgb colours etc...\nOnce done it was a case of muxing 4 different videos together,so all had to have the same framerate and res.\n\nThen the audio i had to make complete from 4 different sources,then clean and remaster in AA and resync to my encode.\n\nCould go on and on and trust me there was alot that needed to be done.....\nSo yes still not full and  i've looked for hrs to find the missing parts but no luck :( ....but we're getting closer now ;-)\n\nOverall v5.5 a5.5 m6\n\n\n\n\nVideo\nID                                       : 0\nFormat                                   : MPEG-4 Visual\nFormat profile                           : Advanced Simple@L5\nFormat settings, BVOP                    : 1\nFormat settings, QPel                    : No\nFormat settings, GMC                     : No warppoints\nFormat settings, Matrix                  : Default (MPEG)\nMuxing mode                              : Packed bitstream\nCodec ID                                 : XVID\nCodec ID/Hint                            : XviD\nDuration                                 : 1h 37mn\nBit rate                                 : 1 514 Kbps\nWidth                                    : 704 pixels\nHeight                                   : 288 pixels\nDisplay aspect ratio                     : 2.40:1\nFrame rate                               : 25.000 fps\nColor space                              : YUV\nChroma subsampling                       : 4:2:0\nBit depth                                : 8 bits\nScan type                                : Progressive\nCompression mode                         : Lossy\nBits/(Pixel*Frame)                       : 0.299\nStream size                              : 1.03 GiB (92%)\nWriting library                          : XviD 64\n\nAudio\nID                                       : 1\nFormat                                   : MPEG Audio\nFormat version                           : Version 1\nFormat profile                           : Layer 3\nMode                                     : Joint stereo\nMode extension                           : MS Stereo\nCodec ID                                 : 55\nCodec ID/Hint                            : MP3\nDuration                                 : 1h 37mn\nBit rate mode                            : Constant\nBit rate                                 : 128 Kbps\nChannel(s)                               : 2 channels\nSampling rate                            : 44.1 KHz\nCompression mode                         : Lossy\nDelay relative to video                  : 9ms\nStream size                              : 89.4 MiB (8%)\nAlignment                                : Split accross interleaves\nInterleave, duration                     : 40 ms (1.00 video frame)\nInterleave, preload duration             : 500 ms\n\n\n\n &lt;a href=&quot;\nhttp://i.imgur.com/Yhfys3h.jpg&quot; rel=&quot;nofollow&quot; target=&quot;_NEW&quot;&gt;\nhttp://i.imgur.com/Yhfys3h.jpg&lt;/a&gt; &lt;a href=&quot;\nhttp://i.imgur.com/JCiljv1.jpg&quot; rel=&quot;nofollow&quot; target=&quot;_NEW&quot;&gt;\nhttp://i.imgur.com/JCiljv1.jpg&lt;/a&gt; &lt;a href=&quot;\nhttp://i.imgur.com/pTPOr9P.jpg&quot; rel=&quot;nofollow&quot; target=&quot;_NEW&quot;&gt;\nhttp://i.imgur.com/pTPOr9P.jpg&lt;/a&gt; &lt;a href=&quot;\nhttp://i.imgur.com/G7hqaOU.jpg&quot; rel=&quot;nofollow&quot; target=&quot;_NEW&quot;&gt;\nhttp://i.imgur.com/G7hqaOU.jpg&lt;/a&gt;","torrent":{"xt":"urn:btih:95746ad10a92a8993eeccc740454353c5e23cab2","amp;dn":"Thor+The+Dark+World+2013+CAM+READNFO+XViD+-+JUSTiCE","amp;tr":["udp%3A%2F%2Ftracker.openbittorrent.com%3A80","udp%3A%2F%2Fopen.demonii.com%3A1337","udp%3A%2F%2Ftracker.coppersurfer.tk%3A6969","udp%3A%2F%2Fexodus.desync.com%3A6969"],"infoHash":"95746ad10a92a8993eeccc740454353c5e23cab2","infoHashBuffer":{"type":"Buffer","data":[149,116,106,209,10,146,168,153,62,236,204,116,4,84,53,60,94,35,202,178]},"announce":[],"urlList":[]}}